<?xml version="1.0" encoding="UTF-8" standalone="no"?>
<!DOCTYPE svg PUBLIC "-//W3C//DTD SVG 1.1//EN" "http://www.w3.org/Graphics/SVG/1.1/DTD/svg11.dtd">
<svg width="100%" height="100%" viewBox="0 0 595 596" version="1.1" xmlns="http://www.w3.org/2000/svg" xmlns:xlink="http://www.w3.org/1999/xlink" xml:space="preserve" xmlns:serif="http://www.serif.com/" style="fill-rule:evenodd;clip-rule:evenodd;stroke-linecap:round;stroke-linejoin:round;stroke-miterlimit:1.5;">
    <g transform="matrix(1,0,0,1,-1832,-333)">
        <g id="coin_export" transform="matrix(1,0,0,1,527.352,0)">
            <g transform="matrix(1.13704,0,0,3.16096,811.204,-643.817)">
                <path d="M626.69,483.676C622.727,483.236 618.808,482.76 614.937,482.247L621.262,460.749C630.484,458.28 640.686,456.257 651.618,454.773C659.839,453.656 668.473,452.843 677.414,452.373C683.348,452.06 689.418,451.898 695.592,451.898C701.766,451.898 707.835,452.06 713.77,452.373C722.711,452.843 731.345,453.656 739.566,454.773C750.498,456.257 760.7,458.28 769.922,460.749L776.247,482.247C772.376,482.76 768.457,483.236 764.493,483.676C748.266,485.477 731.287,486.659 713.77,487.144C707.771,487.311 701.709,487.395 695.592,487.395C689.475,487.395 683.413,487.311 677.414,487.144C659.896,486.659 642.917,485.477 626.69,483.676ZM761.793,433.121L629.39,433.121L643.654,384.641L747.529,384.641L761.793,433.121Z" style="fill:none;stroke:rgb(35,31,32);stroke-width:1.75px;"/>
            </g>
            <g transform="matrix(1.09288,0,0,1.09288,-367.069,205.697)">
                <path d="M1847.58,595.693L1873.51,621.627" style="fill:none;stroke:rgb(35,31,32);stroke-width:3.81px;"/>
            </g>
            <g transform="matrix(-1.09288,0,0,1.09288,3571.31,205.697)">
                <path d="M1847.58,595.693L1873.51,621.627" style="fill:none;stroke:rgb(35,31,32);stroke-width:3.81px;"/>
            </g>
            <g transform="matrix(0.963531,6.06673e-17,-6.06673e-17,0.963531,-128.079,238.927)">
                <path d="M1847.58,595.693L1887.68,635.792" style="fill:none;stroke:rgb(35,31,32);stroke-width:4.32px;"/>
            </g>
            <g transform="matrix(-0.963531,6.06673e-17,6.06673e-17,0.963531,3332.32,238.927)">
                <path d="M1847.58,595.693L1887.68,635.792" style="fill:none;stroke:rgb(35,31,32);stroke-width:4.32px;"/>
            </g>
            <g transform="matrix(1.02821,6.47396e-17,-6.47396e-17,1.02821,-247.574,222.312)">
                <path d="M1847.58,595.693L1887.68,635.792" style="fill:none;stroke:rgb(35,31,32);stroke-width:4.05px;"/>
            </g>
            <g transform="matrix(-1.02821,6.47396e-17,6.47396e-17,1.02821,3451.81,222.312)">
                <path d="M1847.58,595.693L1887.68,635.792" style="fill:none;stroke:rgb(35,31,32);stroke-width:4.05px;"/>
            </g>
            <g transform="matrix(1.42073,8.94544e-17,-8.94544e-17,1.42073,-1012.8,-256.48)">
                <path d="M1847.58,595.693L1887.68,635.792" style="fill:none;stroke:rgb(35,31,32);stroke-width:2.93px;"/>
            </g>
            <g transform="matrix(-1.42073,8.94544e-17,8.94544e-17,1.42073,4217.03,-256.48)">
                <path d="M1847.58,595.693L1887.68,635.792" style="fill:none;stroke:rgb(35,31,32);stroke-width:2.93px;"/>
            </g>
            <g transform="matrix(0.989858,0,0,1.07723,-220.761,-18.2953)">
                <path d="M1820.68,690.249L1820.68,638.306C1820.68,633.218 1822.88,628.338 1826.79,624.739C1830.71,621.141 1836.02,619.12 1841.56,619.12L1841.56,619.12C1847.1,619.12 1852.41,621.141 1856.32,624.739C1860.24,628.338 1862.44,633.218 1862.44,638.306L1862.44,690.249M1820.68,690.249L1820.68,638.306C1820.68,633.218 1822.88,628.338 1826.79,624.739C1830.71,621.141 1836.02,619.12 1841.56,619.12L1841.56,619.12C1847.1,619.12 1852.41,621.141 1856.32,624.739C1860.24,628.338 1862.44,633.218 1862.44,638.306L1862.44,690.249" style="fill:none;stroke:rgb(35,31,32);stroke-width:4.03px;"/>
            </g>
            <g transform="matrix(1,0,0,1,-225.457,0)">
                <path d="M1837.58,572.017L1837.58,609.584C1837.58,615.849 1840.07,621.857 1844.5,626.287L1863.74,645.531C1872.6,654.391 1877.58,666.408 1877.58,678.938L1877.58,725.262M1877.58,793.701L1877.58,891.894" style="fill:none;stroke:rgb(35,31,32);stroke-width:4.17px;"/>
            </g>
            <g transform="matrix(-1,0,0,1,3429.7,0)">
                <path d="M1837.58,572.017L1837.58,609.398C1837.58,615.782 1840.11,621.905 1844.63,626.419L1863.74,645.531C1872.6,654.391 1877.58,666.408 1877.58,678.938L1877.58,725.262M1877.58,793.701L1877.58,891.894" style="fill:none;stroke:rgb(35,31,32);stroke-width:4.17px;"/>
            </g>
            <g transform="matrix(0.750361,0,0,0.750361,971.04,113.355)">
                <path d="M718.816,1022.43C583.495,972.609 486.874,842.477 486.874,689.956C486.874,494.49 645.568,335.796 841.034,335.796C1036.5,335.796 1195.19,494.49 1195.19,689.956C1195.19,842.477 1098.57,972.609 963.252,1022.43C957.387,1024.59 951.448,1026.6 945.442,1028.45C920.853,1036.04 895.124,1041.01 868.58,1043.06C859.489,1043.76 850.303,1044.12 841.034,1044.12C831.765,1044.12 822.579,1043.76 813.488,1043.06C786.944,1041.01 761.215,1036.04 736.626,1028.45C730.62,1026.6 724.681,1024.59 718.816,1022.43Z" style="fill:none;stroke:rgb(35,31,32);stroke-width:5.55px;"/>
            </g>
            <g transform="matrix(0.583614,0,0,0.583614,1111.28,228.403)">
                <path d="M525.754,851.348C500.902,802.938 486.874,748.072 486.874,689.956C486.874,494.49 645.568,335.796 841.034,335.796C1036.5,335.796 1195.19,494.49 1195.19,689.956C1195.19,748.072 1181.17,802.938 1156.31,851.348" style="fill:none;stroke:rgb(35,31,32);stroke-width:7.14px;"/>
            </g>
            <g transform="matrix(4.08412e-17,-0.666988,0.666988,4.08412e-17,1141.93,1192.03)">
                <path d="M881.133,318.66C880.822,321.345 880.803,324.598 881.075,328.42C880,328.806 878.764,328.957 877.368,328.874C877.411,326.473 876.881,324.664 875.778,323.446C874.674,322.229 872.875,321.545 870.381,321.396L867.088,321.199L865.551,346.865C865.458,348.412 865.528,349.555 865.759,350.295C865.99,351.034 866.458,351.576 867.163,351.918C867.869,352.261 868.967,352.527 870.457,352.716C870.671,353.33 870.733,354.385 870.643,355.882C866.958,355.561 863.942,355.33 861.598,355.19C858.704,355.016 855.608,354.881 852.31,354.784C852.4,353.287 852.587,352.247 852.872,351.663C854.375,351.653 855.522,351.521 856.313,351.268C857.104,351.015 857.672,350.524 858.016,349.793C858.36,349.063 858.577,347.95 858.667,346.453L860.204,320.786L857.136,320.603C855.14,320.483 853.591,320.653 852.487,321.113C851.383,321.572 850.553,322.261 849.997,323.179C849.442,324.097 848.937,325.418 848.483,327.144C846.887,327.048 845.728,326.753 845.007,326.259C845.958,322.912 846.526,319.692 846.712,316.599C849.3,316.854 855.009,317.246 863.839,317.775C872.818,318.313 878.583,318.608 881.133,318.66Z" style="fill:rgb(35,31,32);"/>
            </g>
            <g transform="matrix(4.08412e-17,-0.666988,0.666988,4.08412e-17,1141.93,1192.03)">
                <path d="M928.013,356.716C927.573,358.82 927.584,360.29 928.047,361.127C928.51,361.965 929.587,362.611 931.279,363.068C931.4,363.706 931.308,364.759 931,366.226C927.695,365.432 925.015,364.82 922.96,364.39C920.514,363.878 917.765,363.353 914.712,362.816C915.019,361.349 915.356,360.347 915.724,359.811C917.456,360.072 918.702,359.911 919.462,359.33C920.222,358.749 920.822,357.407 921.263,355.303L923.137,346.352C913.745,344.386 907.385,343.182 904.056,342.74L902.259,351.325C901.819,353.428 901.83,354.899 902.293,355.736C902.756,356.573 903.858,357.225 905.598,357.691C905.661,358.368 905.543,359.416 905.246,360.835C901.941,360.04 899.26,359.428 897.206,358.998C894.76,358.486 892.011,357.962 888.957,357.425C889.265,355.957 889.602,354.956 889.969,354.42C891.213,354.578 892.171,354.574 892.844,354.409C893.517,354.243 894.052,353.819 894.45,353.137C894.849,352.454 895.201,351.379 895.509,349.912L899.702,329.881C899.999,328.462 900.102,327.361 900.011,326.576C899.92,325.791 899.599,325.187 899.049,324.766C898.499,324.344 897.623,323.957 896.421,323.603C896.32,322.867 896.412,321.814 896.699,320.444C899.809,321.198 902.538,321.82 904.886,322.312C906.843,322.721 909.543,323.235 912.988,323.854C912.691,325.273 912.378,326.28 912.049,326.875C910.268,326.604 909,326.747 908.245,327.304C907.49,327.86 906.893,329.191 906.452,331.294L904.809,339.145L923.812,343.123L925.456,335.272C925.753,333.854 925.844,332.749 925.728,331.959C925.613,331.169 925.28,330.564 924.73,330.142C924.18,329.721 923.304,329.333 922.102,328.979C922.059,328.204 922.177,327.157 922.453,325.836C925.563,326.589 928.268,327.206 930.567,327.688C932.572,328.108 935.297,328.627 938.742,329.246C938.476,330.518 938.138,331.519 937.73,332.251C935.949,331.98 934.693,332.126 933.962,332.688C933.232,333.249 932.647,334.582 932.206,336.685L928.013,356.716Z" style="fill:rgb(35,31,32);"/>
            </g>
            <g transform="matrix(4.08412e-17,-0.666988,0.666988,4.08412e-17,1141.93,1192.03)">
                <path d="M974.722,370.44C975.899,371.146 976.737,372.046 977.235,373.139C975.571,375.025 973.881,377.621 972.166,380.928L958.638,375.796C951.896,373.279 946.448,371.297 942.293,369.852C942.835,368.401 943.346,367.391 943.825,366.823C945.03,367.167 945.978,367.307 946.668,367.245C947.358,367.183 947.96,366.82 948.474,366.159C948.988,365.497 949.524,364.417 950.084,362.919L956.981,344.449C957.488,343.092 957.744,342.014 957.749,341.215C957.754,340.417 957.516,339.768 957.036,339.268C956.555,338.769 955.771,338.263 954.682,337.749C954.71,336.96 954.987,335.863 955.511,334.458C958.847,335.811 962.505,337.23 966.484,338.716C975.099,341.933 980.875,344.037 983.812,345.027C982.684,349.62 982.045,352.689 981.895,354.234C980.907,354.451 979.757,354.315 978.446,353.826C978.993,351.79 978.763,349.943 977.754,348.286C976.746,346.629 974.439,345.128 970.834,343.781L965.357,341.736L960.531,354.657L964.042,355.969C966.524,356.895 968.349,357.257 969.519,357.054C970.688,356.85 971.576,356.008 972.182,354.527C973.335,354.584 974.473,354.823 975.596,355.242C975.066,356.378 974.285,358.327 973.253,361.089C972.134,364.085 971.42,366.139 971.112,367.251C969.848,366.779 968.87,366.254 968.179,365.676C968.616,364.078 968.459,362.819 967.709,361.899C966.959,360.979 965.343,360.056 962.862,359.129L959.351,357.818L956.597,365.191C956.038,366.69 955.766,367.882 955.782,368.768C955.797,369.654 956.135,370.393 956.794,370.986C957.452,371.579 958.554,372.164 960.099,372.741L960.521,372.898C963.236,373.912 965.419,374.461 967.068,374.543C968.718,374.626 970.076,374.346 971.143,373.704C972.209,373.062 973.402,371.974 974.722,370.44Z" style="fill:rgb(35,31,32);"/>
            </g>
            <g transform="matrix(4.08412e-17,-0.666988,0.666988,4.08412e-17,1141.93,1192.03)">
                <path d="M1012.59,402.38C1010.24,400.963 1008.25,399.446 1006.63,397.828C1005.01,396.21 1003.37,394.261 1001.71,391.979C1003.9,389.393 1005.57,387.012 1006.7,384.837C1007.82,385.104 1009.07,385.65 1010.44,386.474C1008.93,389.181 1008.62,391.617 1009.5,393.782C1010.38,395.947 1012.28,397.906 1015.19,399.658C1017.68,401.152 1019.87,401.946 1021.77,402.038C1023.67,402.131 1025,401.534 1025.77,400.25C1026.32,399.35 1026.43,398.356 1026.12,397.268C1025.82,396.179 1025.3,395.107 1024.56,394.051C1023.83,392.996 1022.7,391.546 1021.19,389.702C1019.07,387.205 1017.45,385.078 1016.32,383.319C1015.19,381.561 1014.46,379.631 1014.12,377.531C1013.78,375.431 1014.24,373.331 1015.5,371.233C1017.23,368.364 1019.62,366.831 1022.69,366.633C1025.75,366.436 1029.17,367.471 1032.93,369.738C1034.95,370.949 1036.83,372.346 1038.59,373.93C1040.35,375.513 1041.61,376.94 1042.36,378.209C1042.03,378.655 1041.58,379.37 1040.98,380.355C1039.82,382.281 1039.04,383.879 1038.62,385.147C1037.44,385.077 1036.12,384.604 1034.67,383.728C1035.54,380.926 1035.59,378.638 1034.82,376.863C1034.05,375.088 1032.68,373.607 1030.71,372.422C1028.82,371.288 1027.1,370.689 1025.54,370.622C1023.97,370.556 1022.82,371.144 1022.07,372.386C1021.22,373.799 1021.22,375.346 1022.08,377.027C1022.93,378.708 1024.5,380.938 1026.8,383.718C1028.77,386.069 1030.31,388.106 1031.43,389.83C1032.55,391.555 1033.28,393.405 1033.6,395.381C1033.93,397.357 1033.5,399.329 1032.32,401.299C1030.62,404.126 1028.08,405.721 1024.71,406.085C1021.34,406.449 1017.3,405.214 1012.59,402.38Z" style="fill:rgb(35,31,32);"/>
            </g>
            <g transform="matrix(4.08412e-17,-0.666988,0.666988,4.08412e-17,1141.93,1192.03)">
                <path d="M1036.83,417.755C1037.76,416.521 1038.54,415.701 1039.16,415.295C1040.22,415.971 1041.09,416.378 1041.77,416.517C1042.45,416.656 1043.11,416.502 1043.76,416.056C1044.42,415.61 1045.19,414.79 1046.1,413.596L1058.2,397.655C1059.08,396.5 1059.65,395.549 1059.9,394.801C1060.15,394.053 1060.12,393.37 1059.81,392.754C1059.49,392.137 1058.87,391.411 1057.93,390.576C1058.18,389.828 1058.77,388.857 1059.67,387.663C1062.16,389.676 1064.36,391.409 1066.27,392.859C1067.86,394.068 1070.08,395.69 1072.93,397.726C1071.99,398.96 1071.23,399.795 1070.65,400.231C1069.15,399.223 1067.95,398.809 1067.03,398.988C1066.11,399.168 1065,400.113 1063.7,401.825L1051.6,417.766C1050.3,419.478 1049.67,420.811 1049.74,421.766C1049.79,422.721 1050.51,423.782 1051.88,424.95C1051.59,425.668 1050.99,426.624 1050.08,427.818C1047.43,425.683 1045.28,423.982 1043.61,422.712C1041.61,421.201 1039.36,419.549 1036.83,417.755Z" style="fill:rgb(35,31,32);"/>
            </g>
            <g transform="matrix(4.08412e-17,-0.666988,0.666988,4.08412e-17,1141.93,1192.03)">
                <path d="M1074.19,449.699C1071.1,446.715 1068.94,443.484 1067.71,440.007C1066.49,436.53 1066.25,433.088 1067,429.682C1067.75,426.275 1069.46,423.187 1072.13,420.418C1074.91,417.541 1078.05,415.832 1081.56,415.293C1085.07,414.753 1088.58,415.176 1092.11,416.562C1095.63,417.948 1098.83,420.029 1101.71,422.806C1103.9,424.922 1105.83,427.114 1107.5,429.382C1109.16,431.65 1110.38,433.748 1111.16,435.678C1109.52,436.733 1107.36,438.645 1104.69,441.414C1103.77,441.077 1102.71,440.336 1101.52,439.191C1103.6,436.821 1104.41,434.509 1103.94,432.255C1103.48,430.002 1102.08,427.747 1099.74,425.491C1097.26,423.097 1094.71,421.543 1092.1,420.83C1089.49,420.117 1087.02,420.143 1084.68,420.91C1082.35,421.676 1080.29,422.976 1078.52,424.81C1074.98,428.479 1073.06,432.392 1072.77,436.55C1072.47,440.708 1074.1,444.505 1077.66,447.941C1078.78,449.016 1079.66,449.831 1080.3,450.385C1080.95,450.939 1081.68,451.438 1082.51,451.883C1083.22,452.295 1083.9,452.415 1084.55,452.244C1085.2,452.074 1086,451.503 1086.93,450.532L1088.55,448.859C1089.55,447.816 1090.18,446.983 1090.44,446.36C1090.69,445.737 1090.63,445.085 1090.24,444.402C1089.86,443.72 1089.08,442.771 1087.89,441.555C1088.3,440.699 1088.99,439.768 1089.96,438.761C1090.71,439.631 1092.64,441.558 1095.73,444.543C1098.79,447.492 1100.71,449.278 1101.5,449.9C1100.53,450.907 1099.64,451.648 1098.84,452.122C1098.12,451.498 1097.54,451.129 1097.1,451.013C1096.65,450.897 1096.18,450.994 1095.67,451.303C1095.16,451.613 1094.48,452.217 1093.61,453.116L1092.31,454.465C1091.51,455.292 1090.92,455.992 1090.54,456.564C1090.16,457.136 1089.84,457.814 1089.57,458.596C1087.23,458.143 1084.72,457.163 1082.04,455.656C1079.36,454.148 1076.75,452.163 1074.19,449.699Z" style="fill:rgb(35,31,32);"/>
            </g>
            <g transform="matrix(4.08412e-17,-0.666988,0.666988,4.08412e-17,1141.93,1192.03)">
                <path d="M1148.86,479.057C1150,480.578 1151.29,482.229 1152.75,484.011C1151.55,484.909 1150.59,485.502 1149.87,485.79C1149.16,485.01 1148.46,484.534 1147.77,484.363C1147.08,484.192 1146.24,484.338 1145.25,484.801C1144.25,485.264 1142.91,486.124 1141.23,487.381L1120.04,503.224C1119.41,502.883 1118.67,502.152 1117.84,501.031L1125.56,461.658L1111.15,472.429C1109.43,473.716 1108.21,474.798 1107.49,475.677C1106.78,476.555 1106.43,477.389 1106.46,478.179C1106.49,478.968 1106.84,479.894 1107.51,480.954C1107.02,481.633 1106.19,482.406 1105.03,483.274C1103.49,481.053 1102.2,479.241 1101.15,477.84C1099.75,475.959 1098.35,474.167 1096.95,472.466C1098.11,471.598 1099.09,471.025 1099.88,470.747C1100.71,471.688 1101.49,472.273 1102.22,472.505C1102.95,472.736 1103.85,472.632 1104.89,472.194C1105.93,471.756 1107.32,470.894 1109.04,469.607L1126.57,456.502L1126.59,456.397C1126.66,455.907 1126.58,455.405 1126.35,454.89C1126.12,454.375 1125.58,453.467 1124.74,452.166C1125.31,451.427 1126.13,450.654 1127.21,449.846C1128.21,451.347 1129.22,452.778 1130.24,454.139C1131.16,455.38 1132.14,456.611 1133.18,457.832L1125.73,494.567L1139.12,484.559C1140.8,483.302 1141.99,482.242 1142.69,481.378C1143.38,480.515 1143.72,479.688 1143.69,478.899C1143.66,478.109 1143.3,477.164 1142.6,476.063C1143.4,475.215 1144.24,474.462 1145.12,473.804C1146.54,475.865 1147.78,477.616 1148.86,479.057Z" style="fill:rgb(35,31,32);"/>
            </g>
            <g transform="matrix(4.08412e-17,-0.666988,0.666988,4.08412e-17,1141.93,1192.03)">
                <path d="M1149.54,548.837C1149,549.41 1148.06,550.049 1146.74,550.754C1145.89,548.942 1144.72,546.647 1143.24,543.869C1141.69,540.958 1140.4,538.644 1139.37,536.926C1140.74,536.198 1141.8,535.801 1142.56,535.737C1143.24,536.681 1143.81,537.298 1144.27,537.588C1144.74,537.877 1145.21,537.893 1145.7,537.635C1146.09,537.423 1146.66,536.838 1147.4,535.88L1149.54,533.041C1146.15,526.69 1143.37,521.743 1141.2,518.199L1139.1,518.388C1137.85,518.487 1136.93,518.69 1136.36,518.995C1135.13,519.653 1134.9,520.934 1135.69,522.836C1135.04,523.524 1134.11,524.185 1132.92,524.819C1132.12,523.096 1131.19,521.242 1130.13,519.257C1129.21,517.537 1128.34,515.995 1127.5,514.63C1128.55,514.066 1129.62,513.67 1130.68,513.441C1131.38,514.318 1132.18,514.85 1133.11,515.039C1134.03,515.227 1135.69,515.245 1138.11,515.094L1169.37,513.043C1170,513.787 1170.56,514.623 1171.05,515.549L1152.26,541.187C1150.75,543.238 1149.82,544.794 1149.48,545.854C1149.14,546.913 1149.16,547.908 1149.54,548.837ZM1151.54,530.273L1157.76,521.862C1159.49,519.47 1160.92,517.689 1162.05,516.519C1160.76,516.754 1159.44,516.906 1158.09,516.974C1156.74,517.043 1155.9,517.081 1155.56,517.09L1144.95,517.901L1151.54,530.273Z" style="fill:rgb(35,31,32);"/>
            </g>
            <g transform="matrix(4.08412e-17,-0.666988,0.666988,4.08412e-17,1141.93,1192.03)">
                <path d="M1159.98,575.59C1160.79,577.796 1161.65,579.464 1162.57,580.592C1163.48,581.72 1164.56,582.495 1165.81,582.919C1167.05,583.342 1168.67,583.588 1170.67,583.658C1170.9,585.012 1170.76,586.233 1170.25,587.322C1167.74,587.283 1164.66,587.686 1161.04,588.532L1156.56,576.043C1154.09,569.283 1152.05,563.854 1150.45,559.758C1151.9,559.226 1153,558.958 1153.75,558.953C1154.25,560.045 1154.76,560.845 1155.26,561.352C1155.77,561.86 1156.44,562.105 1157.29,562.089C1158.13,562.073 1159.31,561.791 1160.81,561.242L1179.33,554.48C1180.69,553.983 1181.67,553.477 1182.28,552.962C1182.89,552.446 1183.23,551.844 1183.3,551.154C1183.37,550.465 1183.23,549.516 1182.9,548.308C1183.58,547.846 1184.6,547.366 1185.96,546.869C1187.11,550.284 1188.01,552.906 1188.68,554.737C1189.38,556.662 1190.38,559.25 1191.67,562.502C1190.26,563.016 1189.16,563.284 1188.38,563.307C1187.68,561.698 1186.89,560.724 1185.99,560.386C1185.1,560.048 1183.64,560.247 1181.62,560.984L1163.31,567.669C1161.81,568.218 1160.72,568.774 1160.05,569.339C1159.38,569.903 1159.03,570.629 1159.01,571.515C1158.99,572.401 1159.26,573.618 1159.83,575.167L1159.98,575.59Z" style="fill:rgb(35,31,32);"/>
            </g>
            <g transform="matrix(4.08412e-17,-0.666988,0.666988,4.08412e-17,1141.93,1192.03)">
                <path d="M1168.36,616.81C1169.88,616.511 1171.01,616.417 1171.75,616.527C1172.09,617.734 1172.46,618.615 1172.88,619.17C1173.29,619.725 1173.89,620.052 1174.67,620.153C1175.46,620.253 1176.59,620.159 1178.06,619.87L1197.7,616.007C1199.12,615.727 1200.17,615.392 1200.86,615.002C1201.55,614.612 1201.98,614.082 1202.15,613.411C1202.33,612.74 1202.34,611.782 1202.2,610.537C1202.88,610.147 1203.96,609.808 1205.43,609.518C1205.95,612.676 1206.45,615.432 1206.91,617.785C1207.29,619.747 1207.87,622.434 1208.65,625.847C1207.13,626.146 1206,626.265 1205.28,626.204C1204.83,624.458 1204.21,623.346 1203.4,622.868C1202.59,622.391 1201.14,622.359 1199.03,622.774L1179.39,626.637C1177.28,627.051 1175.93,627.635 1175.34,628.388C1174.75,629.141 1174.58,630.41 1174.83,632.194C1174.13,632.535 1173.05,632.85 1171.58,633.139C1171.02,629.786 1170.54,627.079 1170.13,625.02C1169.65,622.568 1169.06,619.831 1168.36,616.81Z" style="fill:rgb(35,31,32);"/>
            </g>
            <g transform="matrix(4.08412e-17,-0.666988,0.666988,4.08412e-17,1141.93,1192.03)">
                <path d="M1214.04,678.812C1214.17,680.706 1214.37,682.797 1214.63,685.083C1213.13,685.187 1212,685.165 1211.24,685.018C1211.07,683.978 1210.74,683.199 1210.25,682.682C1209.76,682.165 1208.98,681.831 1207.89,681.681C1206.8,681.531 1205.21,681.529 1203.12,681.674L1176.72,683.507C1176.38,682.88 1176.15,681.868 1176.06,680.472L1203.88,651.563L1185.93,652.81C1183.79,652.958 1182.18,653.208 1181.1,653.558C1180.02,653.909 1179.28,654.424 1178.88,655.103C1178.48,655.782 1178.27,656.748 1178.25,658.002C1177.47,658.306 1176.36,658.509 1174.91,658.609C1174.83,655.91 1174.72,653.688 1174.6,651.943C1174.44,649.6 1174.23,647.335 1173.98,645.148C1175.43,645.048 1176.56,645.095 1177.37,645.289C1177.56,646.528 1177.9,647.444 1178.39,648.036C1178.88,648.628 1179.68,649.023 1180.8,649.221C1181.92,649.419 1183.55,649.444 1185.69,649.295L1207.53,647.779L1207.6,647.699C1207.92,647.325 1208.13,646.86 1208.21,646.303C1208.3,645.746 1208.34,644.691 1208.33,643.139C1209.21,642.827 1210.33,642.625 1211.67,642.531C1211.7,644.333 1211.77,646.082 1211.88,647.777C1211.99,649.322 1212.15,650.889 1212.36,652.478L1186.2,679.317L1202.87,678.159C1204.97,678.014 1206.54,677.767 1207.59,677.418C1208.65,677.07 1209.38,676.556 1209.78,675.877C1210.18,675.197 1210.39,674.206 1210.4,672.903C1211.53,672.624 1212.65,672.446 1213.74,672.37C1213.82,674.87 1213.91,677.017 1214.04,678.812Z" style="fill:rgb(35,31,32);"/>
            </g>
            <g transform="matrix(4.08412e-17,-0.666988,0.666988,4.08412e-17,1141.93,1192.03)">
                <path d="M1208.87,754.675C1206.21,754.186 1202.96,753.951 1199.13,753.969C1198.82,752.871 1198.75,751.628 1198.92,750.24C1201.32,750.443 1203.16,750.034 1204.44,749.013C1205.73,747.993 1206.54,746.243 1206.85,743.764L1207.26,740.492L1181.76,737.256C1180.22,737.061 1179.07,737.054 1178.32,737.236C1177.57,737.417 1177,737.848 1176.61,738.529C1176.22,739.211 1175.88,740.289 1175.59,741.763C1174.97,741.936 1173.91,741.928 1172.42,741.739C1172.99,738.083 1173.42,735.089 1173.71,732.759C1174.08,729.884 1174.42,726.804 1174.73,723.519C1176.22,723.707 1177.25,723.964 1177.81,724.287C1177.72,725.787 1177.78,726.94 1177.98,727.746C1178.18,728.552 1178.63,729.151 1179.33,729.543C1180.04,729.935 1181.14,730.225 1182.62,730.414L1208.13,733.65L1208.52,730.601C1208.77,728.618 1208.7,727.06 1208.32,725.929C1207.93,724.797 1207.3,723.923 1206.42,723.308C1205.54,722.692 1204.26,722.101 1202.57,721.534C1202.77,719.947 1203.14,718.811 1203.68,718.123C1206.96,719.295 1210.13,720.076 1213.21,720.466C1212.78,723.031 1212.01,728.702 1210.9,737.477C1209.76,746.401 1209.09,752.134 1208.87,754.675Z" style="fill:rgb(35,31,32);"/>
            </g>
            <g transform="matrix(4.08412e-17,-0.666988,0.666988,4.08412e-17,1141.93,1192.03)">
                <path d="M1167.71,799.035C1165.64,798.454 1164.17,798.366 1163.31,798.771C1162.44,799.177 1161.72,800.208 1161.15,801.865C1160.51,801.943 1159.46,801.78 1158.02,801.374C1159.04,798.129 1159.83,795.497 1160.39,793.476C1161.07,791.07 1161.78,788.362 1162.52,785.352C1163.96,785.758 1164.94,786.162 1165.45,786.565C1165.07,788.276 1165.15,789.53 1165.68,790.327C1166.21,791.125 1167.51,791.814 1169.58,792.395L1178.38,794.869C1180.98,785.631 1182.61,779.366 1183.27,776.075L1174.83,773.703C1172.76,773.122 1171.29,773.034 1170.42,773.439C1169.56,773.845 1168.83,774.9 1168.25,776.605C1167.57,776.622 1166.53,776.434 1165.14,776.042C1166.15,772.798 1166.94,770.165 1167.51,768.144C1168.19,765.739 1168.9,763.031 1169.64,760.021C1171.08,760.426 1172.06,760.83 1172.57,761.233C1172.33,762.463 1172.26,763.419 1172.38,764.102C1172.5,764.784 1172.89,765.347 1173.55,765.79C1174.2,766.234 1175.25,766.658 1176.69,767.063L1196.39,772.598C1197.79,772.99 1198.88,773.167 1199.67,773.129C1200.46,773.092 1201.08,772.813 1201.54,772.292C1202,771.772 1202.44,770.924 1202.88,769.748C1203.62,769.697 1204.66,769.86 1206.01,770.239C1205.05,773.291 1204.25,775.972 1203.6,778.281C1203.06,780.206 1202.36,782.866 1201.51,786.261C1200.12,785.869 1199.13,785.489 1198.56,785.12C1198.95,783.361 1198.89,782.086 1198.39,781.296C1197.88,780.505 1196.6,779.819 1194.53,779.238L1186.81,777.069L1181.56,795.761L1189.28,797.93C1190.67,798.322 1191.77,798.487 1192.57,798.425C1193.36,798.363 1193.99,798.072 1194.44,797.552C1194.9,797.032 1195.35,796.183 1195.78,795.008C1196.56,795.018 1197.6,795.206 1198.89,795.571C1197.93,798.623 1197.13,801.28 1196.5,803.541C1195.95,805.514 1195.24,808.197 1194.39,811.592C1193.14,811.241 1192.17,810.837 1191.46,810.38C1191.86,808.621 1191.79,807.358 1191.28,806.591C1190.77,805.825 1189.48,805.151 1187.41,804.57L1167.71,799.035Z" style="fill:rgb(35,31,32);"/>
            </g>
            <g transform="matrix(4.08412e-17,-0.666988,0.666988,4.08412e-17,1141.93,1192.03)">
                <path d="M1150.92,844.613C1150.13,845.739 1149.18,846.515 1148.06,846.939C1146.29,845.152 1143.81,843.292 1140.62,841.359L1146.65,828.206C1149.62,821.648 1151.96,816.345 1153.68,812.296C1155.09,812.934 1156.06,813.511 1156.6,814.027C1156.17,815.206 1155.97,816.143 1155.99,816.835C1156,817.528 1156.32,818.153 1156.95,818.71C1157.58,819.267 1158.62,819.875 1160.07,820.534L1178.04,828.654C1179.36,829.25 1180.42,829.578 1181.21,829.636C1182.01,829.695 1182.67,829.501 1183.2,829.055C1183.74,828.609 1184.29,827.86 1184.88,826.809C1185.66,826.89 1186.74,827.239 1188.11,827.856C1186.53,831.094 1184.87,834.649 1183.12,838.52C1179.34,846.899 1176.85,852.521 1175.66,855.386C1171.16,853.952 1168.14,853.108 1166.61,852.855C1166.46,851.855 1166.67,850.717 1167.25,849.442C1169.24,850.124 1171.1,850.018 1172.82,849.123C1174.54,848.228 1176.19,846.027 1177.78,842.52L1180.19,837.192L1167.62,831.511L1166.07,834.927C1164.98,837.34 1164.5,839.137 1164.62,840.318C1164.75,841.499 1165.53,842.441 1166.96,843.145C1166.83,844.291 1166.52,845.411 1166.02,846.504C1164.93,845.898 1163.03,844.988 1160.35,843.773C1157.43,842.456 1155.43,841.606 1154.34,841.224C1154.9,839.994 1155.49,839.054 1156.11,838.404C1157.67,838.946 1158.94,838.874 1159.91,838.188C1160.88,837.501 1161.91,835.951 1163,833.537L1164.54,830.122L1157.37,826.88C1155.91,826.221 1154.74,825.87 1153.86,825.827C1152.97,825.783 1152.21,826.07 1151.58,826.688C1150.94,827.305 1150.28,828.365 1149.6,829.868L1149.42,830.278C1148.22,832.92 1147.53,835.06 1147.34,836.701C1147.14,838.341 1147.33,839.715 1147.9,840.822C1148.47,841.929 1149.48,843.193 1150.92,844.613Z" style="fill:rgb(35,31,32);"/>
            </g>
            <g transform="matrix(4.08412e-17,-0.666988,0.666988,4.08412e-17,1141.93,1192.03)">
                <path d="M1135.4,919.229C1134.3,920.772 1133.11,922.507 1131.85,924.433C1130.64,923.559 1129.78,922.822 1129.29,922.222C1129.82,921.311 1130.06,920.502 1130.02,919.793C1129.97,919.084 1129.58,918.325 1128.84,917.516C1128.1,916.706 1126.87,915.69 1125.17,914.466L1103.67,899.039C1103.8,898.336 1104.28,897.416 1105.09,896.279L1144.96,891.765L1130.35,881.276C1128.6,880.023 1127.2,879.188 1126.14,878.77C1125.09,878.352 1124.19,878.276 1123.45,878.542C1122.7,878.807 1121.93,879.419 1121.12,880.376C1120.32,880.112 1119.34,879.558 1118.16,878.713C1119.81,876.579 1121.15,874.801 1122.17,873.38C1123.54,871.472 1124.83,869.595 1126.03,867.75C1127.2,868.595 1128.04,869.352 1128.55,870.022C1127.9,871.095 1127.58,872.016 1127.58,872.786C1127.58,873.556 1127.95,874.373 1128.68,875.237C1129.41,876.102 1130.65,877.16 1132.4,878.413L1150.18,891.175L1150.29,891.158C1150.78,891.077 1151.23,890.85 1151.65,890.477C1152.08,890.103 1152.78,889.316 1153.76,888.115C1154.64,888.437 1155.63,888.991 1156.72,889.777C1155.59,891.181 1154.53,892.573 1153.54,893.953C1152.64,895.212 1151.76,896.52 1150.91,897.878L1113.64,901.858L1127.22,911.604C1128.92,912.827 1130.3,913.641 1131.33,914.044C1132.36,914.447 1133.25,914.516 1133.99,914.25C1134.74,913.985 1135.53,913.353 1136.37,912.356C1137.42,912.863 1138.39,913.438 1139.28,914.079C1137.75,916.051 1136.45,917.767 1135.4,919.229Z" style="fill:rgb(35,31,32);"/>
            </g>
            <g transform="matrix(4.08412e-17,-0.666988,0.666988,4.08412e-17,1141.93,1192.03)">
                <path d="M1078.95,925.286C1081.98,922.231 1085.22,920.093 1088.67,918.874C1092.13,917.654 1095.53,917.416 1098.88,918.158C1102.22,918.9 1105.26,920.625 1107.99,923.332C1110.69,926.004 1112.45,929.025 1113.26,932.395C1114.08,935.766 1113.89,939.204 1112.71,942.708C1111.52,946.213 1109.4,949.511 1106.34,952.601C1103.32,955.656 1100.08,957.793 1096.62,959.013C1093.17,960.232 1089.76,960.462 1086.4,959.702C1083.04,958.942 1080.01,957.226 1077.31,954.555C1074.57,951.848 1072.81,948.818 1072.01,945.465C1071.21,942.112 1071.41,938.683 1072.59,935.178C1073.78,931.673 1075.9,928.376 1078.95,925.286ZM1080.67,928.457C1077.82,931.334 1076.52,934.566 1076.77,938.151C1077.02,941.737 1078.74,945.112 1081.94,948.276C1084.25,950.561 1086.77,952.146 1089.52,953.033C1092.26,953.92 1094.96,954.047 1097.63,953.415C1100.29,952.783 1102.64,951.436 1104.68,949.376C1107.53,946.499 1108.81,943.268 1108.53,939.682C1108.25,936.097 1106.52,932.74 1103.36,929.611C1100.98,927.256 1098.42,925.635 1095.68,924.748C1092.93,923.861 1090.26,923.742 1087.64,924.392C1085.03,925.042 1082.71,926.397 1080.67,928.457Z" style="fill:rgb(35,31,32);"/>
            </g>
            <g transform="matrix(4.08412e-17,-0.666988,0.666988,4.08412e-17,1141.93,1192.03)">
                <path d="M1055.35,947.796C1056.32,949.011 1056.91,949.97 1057.15,950.674C1056.24,951.527 1055.62,952.266 1055.32,952.889C1055.02,953.511 1055,954.194 1055.27,954.937C1055.54,955.68 1056.14,956.639 1057.07,957.815L1069.49,973.509C1070.39,974.646 1071.17,975.43 1071.83,975.863C1072.49,976.296 1073.16,976.436 1073.84,976.283C1074.51,976.131 1075.37,975.706 1076.41,975.009C1077.08,975.442 1077.87,976.246 1078.8,977.421C1076.23,979.328 1074.01,981.026 1072.12,982.514C1070.56,983.755 1068.43,985.5 1065.75,987.75C1064.79,986.535 1064.17,985.591 1063.89,984.918C1065.24,983.723 1065.94,982.658 1066,981.721C1066.06,980.785 1065.42,979.474 1064.08,977.789L1051.66,962.095C1050.33,960.41 1049.19,959.477 1048.25,959.297C1047.31,959.116 1046.11,959.545 1044.63,960.583C1044.01,960.12 1043.23,959.3 1042.3,958.124C1045.03,956.094 1047.22,954.427 1048.86,953.124C1050.82,951.573 1052.99,949.797 1055.35,947.796Z" style="fill:rgb(35,31,32);"/>
            </g>
            <g transform="matrix(4.08412e-17,-0.666988,0.666988,4.08412e-17,1141.93,1192.03)">
                <path d="M1018.84,973.701C1021.17,972.244 1023.43,971.159 1025.6,970.447C1027.78,969.734 1030.26,969.155 1033.05,968.71C1034.36,971.841 1035.72,974.405 1037.15,976.402C1036.4,977.281 1035.35,978.145 1034,978.993C1032.27,976.418 1030.24,975.034 1027.91,974.841C1025.58,974.648 1022.97,975.451 1020.09,977.253C1017.63,978.789 1015.93,980.382 1014.99,982.032C1014.05,983.683 1013.97,985.143 1014.77,986.415C1015.32,987.305 1016.15,987.86 1017.26,988.079C1018.38,988.299 1019.57,988.32 1020.84,988.143C1022.12,987.965 1023.92,987.62 1026.25,987.106C1029.43,986.353 1032.06,985.873 1034.14,985.663C1036.22,985.454 1038.27,985.674 1040.3,986.323C1042.33,986.972 1043.99,988.334 1045.29,990.411C1047.06,993.25 1047.34,996.08 1046.13,998.901C1044.92,1001.72 1042.44,1004.3 1038.72,1006.63C1036.72,1007.87 1034.62,1008.92 1032.41,1009.77C1030.21,1010.62 1028.37,1011.1 1026.89,1011.19C1026.64,1010.7 1026.21,1009.96 1025.61,1008.99C1024.41,1007.08 1023.35,1005.66 1022.4,1004.72C1023,1003.69 1024.02,1002.73 1025.46,1001.83C1027.57,1003.88 1029.58,1004.96 1031.51,1005.08C1033.44,1005.2 1035.38,1004.64 1037.33,1003.43C1039.2,1002.26 1040.51,1001 1041.28,999.633C1042.05,998.268 1042.05,996.972 1041.28,995.743C1040.41,994.344 1039.03,993.645 1037.14,993.645C1035.26,993.645 1032.56,994.037 1029.04,994.821C1026.05,995.51 1023.53,995.963 1021.49,996.18C1019.44,996.398 1017.47,996.204 1015.56,995.6C1013.65,994.997 1012.08,993.72 1010.86,991.771C1009.12,988.973 1008.84,985.991 1010.05,982.823C1011.25,979.655 1014.18,976.614 1018.84,973.701Z" style="fill:rgb(35,31,32);"/>
            </g>
            <g transform="matrix(4.08412e-17,-0.666988,0.666988,4.08412e-17,1141.93,1192.03)">
                <path d="M971.312,1010.88C969.98,1011.21 968.752,1011.17 967.627,1010.74C967.476,1008.23 966.841,1005.2 965.722,1001.65L978.928,995.735C985.481,992.762 990.74,990.32 994.703,988.412C995.343,989.823 995.694,990.898 995.756,991.639C994.659,992.246 993.889,992.815 993.444,993.346C992.999,993.878 992.828,994.559 992.931,995.39C993.034,996.222 993.415,997.366 994.076,998.822L1002.22,1016.77C1002.82,1018.1 1003.4,1019.04 1003.96,1019.61C1004.52,1020.18 1005.15,1020.47 1005.84,1020.48C1006.53,1020.5 1007.45,1020.3 1008.58,1019.9C1009.12,1020.48 1009.7,1021.45 1010.32,1022.82C1007,1024.21 1003.4,1025.79 999.537,1027.54C991.163,1031.34 985.586,1033.93 982.806,1035.3C980.364,1031.25 978.651,1028.62 977.668,1027.42C978.214,1026.57 979.124,1025.86 980.399,1025.28C981.448,1027.11 982.915,1028.25 984.798,1028.72C986.682,1029.18 989.376,1028.62 992.88,1027.03L998.205,1024.61L992.505,1012.05L989.092,1013.6C986.68,1014.69 985.131,1015.72 984.446,1016.69C983.761,1017.66 983.726,1018.89 984.341,1020.36C983.485,1021.14 982.51,1021.77 981.418,1022.27C980.993,1021.09 980.171,1019.15 978.952,1016.47C977.631,1013.56 976.687,1011.6 976.121,1010.59C977.349,1010.03 978.413,1009.72 979.31,1009.64C980.128,1011.08 981.128,1011.86 982.308,1011.98C983.489,1012.11 985.286,1011.62 987.698,1010.52L991.111,1008.98L987.858,1001.81C987.197,1000.35 986.548,999.316 985.912,998.699C985.275,998.082 984.514,997.797 983.629,997.842C982.744,997.886 981.551,998.25 980.049,998.931L979.639,999.117C977,1000.32 975.066,1001.47 973.839,1002.57C972.612,1003.68 971.848,1004.84 971.545,1006.04C971.242,1007.25 971.165,1008.86 971.312,1010.88ZM973.392,999.117L973.819,999.391C973.808,999.239 973.802,999.086 973.802,998.931C973.802,998.771 973.808,998.612 973.82,998.454L973.392,999.117Z" style="fill:rgb(35,31,32);"/>
            </g>
            <g transform="matrix(4.08412e-17,-0.666988,0.666988,4.08412e-17,1141.93,1192.03)">
                <path d="M936.693,1011.44C937.097,1012.93 937.27,1014.05 937.211,1014.79C936.031,1015.21 935.179,1015.65 934.654,1016.11C934.13,1016.56 933.844,1017.18 933.799,1017.97C933.753,1018.76 933.926,1019.87 934.318,1021.32L939.543,1040.64C939.922,1042.04 940.329,1043.07 940.766,1043.73C941.203,1044.39 941.762,1044.78 942.444,1044.9C943.125,1045.03 944.082,1044.98 945.314,1044.75C945.751,1045.41 946.165,1046.46 946.556,1047.91C943.443,1048.65 940.728,1049.33 938.413,1049.96C936.483,1050.48 933.843,1051.24 930.492,1052.25C930.087,1050.76 929.89,1049.65 929.9,1048.92C931.611,1048.35 932.677,1047.65 933.097,1046.81C933.517,1045.97 933.447,1044.52 932.886,1042.44L927.66,1023.12C927.099,1021.05 926.423,1019.74 925.63,1019.21C924.838,1018.67 923.561,1018.59 921.798,1018.96C921.409,1018.29 921.019,1017.23 920.628,1015.78C923.934,1014.99 926.601,1014.32 928.627,1013.77C931.039,1013.12 933.728,1012.34 936.693,1011.44Z" style="fill:rgb(35,31,32);"/>
            </g>
            <g transform="matrix(4.08412e-17,-0.666988,0.666988,4.08412e-17,1141.93,1192.03)">
                <path d="M904.748,1057.7C904.536,1057.74 904.323,1057.79 904.11,1057.83L875.528,1033.58L877.835,1050.14C878.124,1052.21 878.479,1053.77 878.9,1054.79C879.32,1055.82 879.883,1056.51 880.589,1056.87C881.294,1057.22 882.297,1057.36 883.598,1057.28C883.955,1058.39 884.209,1059.49 884.361,1060.58C881.872,1060.83 879.737,1061.07 877.955,1061.32C876.074,1061.58 874.002,1061.92 871.739,1062.34C871.532,1060.85 871.476,1059.73 871.57,1058.96C872.596,1058.71 873.35,1058.33 873.832,1057.81C874.315,1057.29 874.593,1056.48 874.668,1055.38C874.742,1054.29 874.635,1052.7 874.345,1050.62L870.694,1024.41C871.296,1024.03 872.29,1023.74 873.676,1023.54L904.437,1049.31L901.954,1031.49C901.658,1029.36 901.298,1027.77 900.874,1026.72C900.45,1025.67 899.885,1024.96 899.18,1024.61C898.474,1024.25 897.496,1024.11 896.244,1024.18C895.887,1023.43 895.608,1022.33 895.408,1020.89C898.094,1020.62 900.304,1020.36 902.036,1020.12C904.363,1019.8 906.608,1019.44 908.772,1019.03C908.972,1020.47 909.004,1021.6 908.866,1022.43C907.643,1022.7 906.753,1023.1 906.196,1023.63C905.639,1024.16 905.301,1024.99 905.18,1026.12C905.06,1027.24 905.148,1028.87 905.444,1031L908.464,1052.68L908.549,1052.75C908.944,1053.04 909.422,1053.22 909.984,1053.26C910.545,1053.31 911.6,1053.28 913.148,1053.16C913.52,1054.02 913.799,1055.12 913.985,1056.45C912.189,1056.6 910.45,1056.79 908.767,1057.03C907.447,1057.21 906.113,1057.43 904.767,1057.7L903.652,1055.5C903.365,1055.47 903.081,1055.41 902.802,1055.34C903.159,1056.1 903.755,1056.94 904.748,1057.7Z" style="fill:rgb(35,31,32);"/>
            </g>
            <g transform="matrix(4.08412e-17,-0.666988,0.666988,4.08412e-17,1141.93,1192.03)">
                <path d="M801.972,1061.36C802.275,1058.68 802.286,1055.42 802.003,1051.6C803.077,1051.21 804.312,1051.06 805.709,1051.14C805.672,1053.54 806.207,1055.35 807.314,1056.56C808.421,1057.78 810.222,1058.45 812.717,1058.6L816.01,1058.79L817.476,1033.11C817.564,1031.57 817.492,1030.42 817.259,1029.68C817.026,1028.95 816.556,1028.41 815.85,1028.07C815.143,1027.72 814.044,1027.46 812.553,1027.28C812.338,1026.66 812.273,1025.61 812.359,1024.11C816.045,1024.42 819.061,1024.64 821.406,1024.78C824.3,1024.94 827.396,1025.07 830.695,1025.16C830.609,1026.66 830.425,1027.7 830.141,1028.28C828.639,1028.3 827.492,1028.43 826.702,1028.68C825.911,1028.94 825.345,1029.43 825.003,1030.16C824.661,1030.9 824.447,1032.01 824.361,1033.51L822.895,1059.18L825.964,1059.35C827.96,1059.47 829.509,1059.29 830.611,1058.83C831.714,1058.37 832.542,1057.68 833.095,1056.76C833.648,1055.84 834.149,1054.52 834.598,1052.79C836.195,1052.88 837.354,1053.17 838.077,1053.66C837.135,1057.01 836.576,1060.24 836.399,1063.33C833.81,1063.08 828.1,1062.7 819.269,1062.2C810.288,1061.69 804.522,1061.41 801.972,1061.36Z" style="fill:rgb(35,31,32);"/>
            </g>
            <g transform="matrix(4.08412e-17,-0.666988,0.666988,4.08412e-17,1141.93,1192.03)">
                <path d="M754.833,1023.4C755.268,1021.29 755.253,1019.82 754.789,1018.99C754.324,1018.15 753.245,1017.51 751.552,1017.06C751.429,1016.42 751.519,1015.36 751.823,1013.9C755.131,1014.68 757.812,1015.29 759.868,1015.71C762.315,1016.22 765.065,1016.74 768.12,1017.27C767.816,1018.74 767.481,1019.74 767.115,1020.27C765.382,1020.02 764.136,1020.18 763.377,1020.76C762.619,1021.35 762.022,1022.69 761.586,1024.8L759.734,1033.75C769.13,1035.69 775.493,1036.88 778.822,1037.32L780.599,1028.73C781.035,1026.62 781.02,1025.15 780.555,1024.32C780.09,1023.48 778.987,1022.83 777.245,1022.37C777.181,1021.69 777.296,1020.65 777.59,1019.23C780.897,1020.01 783.579,1020.62 785.634,1021.04C788.081,1021.55 790.832,1022.07 793.887,1022.6C793.583,1024.07 793.248,1025.07 792.882,1025.61C791.638,1025.45 790.68,1025.46 790.007,1025.62C789.335,1025.79 788.8,1026.22 788.404,1026.9C788.007,1027.58 787.657,1028.66 787.353,1030.13L783.207,1050.17C782.913,1051.59 782.813,1052.69 782.906,1053.47C782.998,1054.26 783.32,1054.86 783.871,1055.28C784.422,1055.7 785.299,1056.09 786.503,1056.44C786.606,1057.17 786.515,1058.23 786.232,1059.6C783.12,1058.85 780.389,1058.24 778.04,1057.75C776.083,1057.34 773.381,1056.84 769.935,1056.22C770.229,1054.81 770.539,1053.8 770.866,1053.2C772.649,1053.47 773.916,1053.32 774.67,1052.76C775.423,1052.21 776.018,1050.87 776.453,1048.77L778.078,1040.91L759.065,1036.98L757.44,1044.84C757.147,1046.26 757.058,1047.36 757.176,1048.15C757.293,1048.94 757.627,1049.55 758.178,1049.96C758.729,1050.38 759.606,1050.77 760.809,1051.12C760.853,1051.9 760.739,1052.94 760.465,1054.27C757.353,1053.52 754.647,1052.91 752.347,1052.43C750.341,1052.02 747.614,1051.51 744.168,1050.89C744.432,1049.62 744.767,1048.62 745.173,1047.89C746.955,1048.15 748.211,1048.01 748.94,1047.44C749.669,1046.88 750.251,1045.54 750.687,1043.44L754.833,1023.4Z" style="fill:rgb(35,31,32);"/>
            </g>
            <g transform="matrix(4.08412e-17,-0.666988,0.666988,4.08412e-17,1141.93,1192.03)">
                <path d="M708.2,1009.83C707.022,1009.13 706.181,1008.23 705.68,1007.14C707.339,1005.25 709.022,1002.65 710.728,999.335L724.27,1004.43C731.018,1006.93 736.472,1008.9 740.631,1010.33C740.093,1011.78 739.585,1012.79 739.107,1013.36C737.901,1013.02 736.953,1012.88 736.263,1012.95C735.573,1013.01 734.972,1013.38 734.46,1014.04C733.948,1014.7 733.414,1015.78 732.859,1017.28L726.011,1035.77C725.508,1037.13 725.255,1038.21 725.252,1039.01C725.25,1039.81 725.489,1040.45 725.971,1040.95C726.452,1041.45 727.238,1041.96 728.328,1042.47C728.302,1043.26 728.029,1044.35 727.508,1045.76C724.169,1044.42 720.507,1043.01 716.524,1041.53C707.9,1038.34 702.119,1036.25 699.178,1035.27C700.295,1030.67 700.925,1027.6 701.071,1026.06C702.059,1025.84 703.209,1025.97 704.521,1026.45C703.98,1028.49 704.215,1030.34 705.228,1031.99C706.241,1033.65 708.551,1035.14 712.16,1036.48L717.643,1038.51L722.434,1025.57L718.919,1024.27C716.435,1023.35 714.609,1023 713.44,1023.2C712.271,1023.41 711.385,1024.25 710.783,1025.74C709.63,1025.68 708.492,1025.45 707.367,1025.03C707.895,1023.89 708.67,1021.94 709.695,1019.18C710.805,1016.18 711.514,1014.12 711.819,1013.01C713.084,1013.48 714.063,1014 714.756,1014.58C714.324,1016.18 714.484,1017.43 715.236,1018.35C715.989,1019.27 717.607,1020.19 720.091,1021.11L723.606,1022.41L726.339,1015.03C726.895,1013.53 727.163,1012.34 727.145,1011.45C727.127,1010.57 726.788,1009.83 726.127,1009.24C725.467,1008.64 724.363,1008.06 722.817,1007.49L722.395,1007.33C719.677,1006.33 717.493,1005.78 715.843,1005.71C714.193,1005.63 712.836,1005.91 711.771,1006.56C710.706,1007.2 709.516,1008.29 708.2,1009.83Z" style="fill:rgb(35,31,32);"/>
            </g>
            <g transform="matrix(4.08412e-17,-0.666988,0.666988,4.08412e-17,1141.93,1192.03)">
                <path d="M699.816,358.156C700.257,359.343 701.068,361.229 702.249,363.812C703.578,366.721 704.527,368.677 705.096,369.681C703.869,370.242 702.806,370.563 701.909,370.643C701.308,369.591 700.61,368.892 699.816,368.546L699.816,358.156ZM699.816,347.388C701.499,350.09 702.728,351.911 703.504,352.853C702.96,353.706 702.051,354.423 700.779,355.005C700.489,354.504 700.168,354.054 699.816,353.656L699.816,347.388ZM699.816,381.927C700.244,381.77 700.705,381.579 701.199,381.353L701.608,381.166C704.244,379.961 706.175,378.804 707.399,377.695C708.623,376.586 709.384,375.428 709.684,374.219C709.983,373.011 710.057,371.398 709.903,369.38C711.235,369.046 712.463,369.089 713.589,369.509C713.747,372.019 714.39,375.049 715.519,378.6L702.328,384.546C701.469,384.939 700.631,385.322 699.816,385.697L699.816,381.927Z" style="fill:rgb(35,31,32);"/>
            </g>
            <g transform="matrix(4.08412e-17,-0.666988,0.666988,4.08412e-17,1141.93,1192.03)">
                <path d="M744.632,368.697C744.224,367.203 744.048,366.085 744.105,365.344C745.284,364.919 746.135,364.479 746.659,364.026C747.183,363.572 747.467,362.951 747.51,362.162C747.554,361.373 747.378,360.255 746.983,358.809L741.713,339.5C741.331,338.101 740.921,337.074 740.483,336.416C740.044,335.759 739.484,335.368 738.803,335.243C738.121,335.118 737.164,335.172 735.933,335.405C735.494,334.747 735.078,333.696 734.683,332.249C737.795,331.503 740.508,330.815 742.822,330.183C744.75,329.656 747.389,328.884 750.737,327.867C751.145,329.361 751.345,330.472 751.336,331.2C749.627,331.77 748.563,332.475 748.145,333.315C747.726,334.154 747.8,335.61 748.366,337.683L753.637,356.992C754.203,359.066 754.882,360.369 755.676,360.904C756.469,361.439 757.747,361.517 759.509,361.14C759.899,361.81 760.292,362.869 760.687,364.315C757.382,365.114 754.717,365.789 752.692,366.342C750.281,367 747.595,367.785 744.632,368.697Z" style="fill:rgb(35,31,32);"/>
            </g>
            <g transform="matrix(4.08412e-17,-0.666988,0.666988,4.08412e-17,1141.93,1192.03)">
                <path d="M776.454,322.362C776.666,322.32 776.878,322.277 777.09,322.233L805.73,346.416L803.384,329.864C803.089,327.786 802.731,326.234 802.308,325.209C801.885,324.184 801.32,323.494 800.614,323.14C799.908,322.785 798.904,322.65 797.603,322.733C797.244,321.623 796.988,320.524 796.833,319.436C799.321,319.184 801.456,318.932 803.237,318.679C805.118,318.413 807.189,318.069 809.451,317.647C809.661,319.132 809.72,320.259 809.628,321.029C808.602,321.276 807.849,321.66 807.368,322.182C806.887,322.705 806.61,323.514 806.538,324.609C806.467,325.705 806.578,327.292 806.872,329.37L810.585,355.57C809.984,355.958 808.991,356.25 807.605,356.447L776.784,330.757L779.308,348.57C779.61,350.698 779.974,352.287 780.4,353.337C780.827,354.387 781.393,355.089 782.099,355.443C782.806,355.797 783.784,355.936 785.035,355.86C785.395,356.616 785.677,357.712 785.88,359.147C783.194,359.427 780.985,359.689 779.253,359.935C776.927,360.264 774.683,360.633 772.52,361.04C772.317,359.605 772.282,358.475 772.418,357.648C773.641,357.374 774.53,356.97 775.085,356.437C775.641,355.904 775.977,355.074 776.095,353.947C776.213,352.82 776.121,351.192 775.82,349.064L772.748,327.392L772.664,327.328C772.268,327.031 771.79,326.859 771.228,326.812C770.978,326.791 770.63,326.787 770.185,326.799L771.103,325.645C774.119,324.477 777.331,323.022 776.5,322.396C776.484,322.385 776.469,322.373 776.454,322.362ZM767.58,325.489C767.436,324.933 767.315,324.314 767.219,323.632C767.88,323.576 768.534,323.514 769.181,323.445C768.543,324.113 768.004,324.842 767.58,325.489ZM771.674,323.149C771.929,323.115 772.183,323.08 772.435,323.045C773.712,322.864 775.002,322.646 776.304,322.391L773.578,323.752C773.635,324.001 773.702,324.224 773.788,324.42L773.086,323.998L771.972,324.554L772.632,323.725L771.674,323.149ZM771.103,325.645C769.967,326.086 768.859,326.485 768.006,326.785C767.977,326.716 767.95,326.647 767.923,326.576L771.972,324.554L771.103,325.645Z" style="fill:rgb(35,31,32);"/>
            </g>
            <g transform="matrix(1.09372,0,0,1.09372,722.403,69.7654)">
                <path d="M687.817,726.437C696.962,707.711 710.49,691.511 727.06,679.174M881.608,679.174C898.179,691.511 911.706,707.711 920.851,726.437M687.817,726.437C696.962,707.711 710.49,691.511 727.06,679.174M687.817,726.437C696.962,707.711 710.49,691.511 727.06,679.174" style="fill:none;stroke:rgb(35,31,32);stroke-width:3.81px;"/>
            </g>
            <g transform="matrix(1.23044,0,0,1.23044,612.438,-37.3074)">
                <path d="M688.339,725.382C709.598,682.839 753.578,653.595 804.334,653.595C855.091,653.595 899.071,682.839 920.33,725.382" style="fill:none;stroke:rgb(35,31,32);stroke-width:3.39px;"/>
            </g>
            <g transform="matrix(1,0,0,1,-235.457,0)">
                <path d="M1742.67,910.74C1626.2,871.179 1542.3,760.846 1542.3,631.072C1542.3,468.105 1674.61,335.796 1837.58,335.796C2000.54,335.796 2132.85,468.105 2132.85,631.072C2132.85,760.846 2048.95,871.179 1932.48,910.74C1908.92,918.741 1884.04,923.847 1858.25,925.634C1851.42,926.107 1844.52,926.347 1837.58,926.347C1830.63,926.347 1823.74,926.107 1816.91,925.634C1791.11,923.847 1766.23,918.741 1742.67,910.74Z" style="fill:none;stroke:rgb(35,31,32);stroke-width:4.17px;"/>
            </g>
            <g transform="matrix(1,0,0,1,-275.261,-0.166244)">
                <path d="M1760.23,743.428L1742.2,761.458L1742.2,761.428L1645.7,761.428" style="fill:none;stroke:rgb(35,31,32);stroke-width:4.17px;"/>
            </g>
            <g transform="matrix(1.25528,0,0,1.0006,695.355,95.9415)">
                <path d="M530.417,646.931L914.297,646.931" style="fill:none;stroke:rgb(35,31,32);stroke-width:3.67px;"/>
            </g>
            <g transform="matrix(1.14917,0,0,0.916017,772.008,186.662)">
                <path d="M530.417,646.931L668.732,646.931M775.983,646.931L914.297,646.931" style="fill:none;stroke:rgb(35,31,32);stroke-width:4.01px;"/>
            </g>
            <g transform="matrix(1.29491,0,0,1.03219,666.728,93.5055)">
                <path d="M812.849,629.492L826.749,646.931L901.274,646.931" style="fill:none;stroke:rgb(35,31,32);stroke-width:3.56px;"/>
            </g>
            <g transform="matrix(0.980821,-5.86712e-17,5.86712e-17,0.980821,-201.789,15.1447)">
                <path d="M1755.49,789.654L1744.89,779.059" style="fill:none;stroke:rgb(35,31,32);stroke-width:4.25px;"/>
            </g>
            <g transform="matrix(1.18212,7.74326e-15,-7.74326e-15,1.18212,-585.067,-143.812)">
                <path d="M1919.66,789.654L1928.46,780.863" style="fill:none;stroke:rgb(35,31,32);stroke-width:3.52px;"/>
            </g>
            <g transform="matrix(2.12901,1.39457e-14,-1.39457e-14,2.12901,-2390.31,-883.199)">
                <path d="M1919.66,789.654L1928.46,780.863" style="fill:none;stroke:rgb(35,31,32);stroke-width:1.96px;"/>
            </g>
            <g transform="matrix(3.18836,2.08847e-14,-2.08847e-14,3.18836,-4412.44,-1710.41)">
                <path d="M1919.66,789.654L1928.46,780.863" style="fill:none;stroke:rgb(35,31,32);stroke-width:1.31px;"/>
            </g>
            <g transform="matrix(4.3567,2.85377e-14,-2.85377e-14,4.3567,-6644.75,-2622.72)">
                <path d="M1919.66,789.654L1928.46,780.863" style="fill:none;stroke:rgb(35,31,32);stroke-width:0.96px;"/>
            </g>
            <g transform="matrix(5.63364,3.69021e-14,-3.69021e-14,5.63364,-9086.49,-3619.84)">
                <path d="M1919.66,789.654L1928.46,780.863" style="fill:none;stroke:rgb(35,31,32);stroke-width:0.74px;"/>
            </g>
            <g transform="matrix(7.02186,4.59954e-14,-4.59954e-14,7.02186,-11742.8,-4703.85)">
                <path d="M1919.66,789.654L1928.46,780.863" style="fill:none;stroke:rgb(35,31,32);stroke-width:0.59px;"/>
            </g>
            <g transform="matrix(8.5274,5.58572e-14,-5.58572e-14,8.5274,-14625.4,-5879.47)">
                <path d="M1919.66,789.654L1928.46,780.863" style="fill:none;stroke:rgb(35,31,32);stroke-width:0.49px;"/>
            </g>
            <g transform="matrix(1.76646,-1.05667e-16,1.05667e-16,1.76646,-1593.44,-596.918)">
                <path d="M1755.49,789.654L1744.89,779.059" style="fill:none;stroke:rgb(35,31,32);stroke-width:2.36px;"/>
            </g>
            <g transform="matrix(2.64542,-1.58245e-16,1.58245e-16,2.64542,-3147.91,-1281.68)">
                <path d="M1755.49,789.654L1744.89,779.059" style="fill:none;stroke:rgb(35,31,32);stroke-width:1.58px;"/>
            </g>
            <g transform="matrix(3.61481,-2.16233e-16,2.16233e-16,3.61481,-4860.17,-2036.89)">
                <path d="M1755.49,789.654L1744.89,779.059" style="fill:none;stroke:rgb(35,31,32);stroke-width:1.15px;"/>
            </g>
            <g transform="matrix(4.67431,-2.7961e-16,2.7961e-16,4.67431,-6729.67,-2862.3)">
                <path d="M1755.49,789.654L1744.89,779.059" style="fill:none;stroke:rgb(35,31,32);stroke-width:0.89px;"/>
            </g>
            <g transform="matrix(5.82613,-7.84082e-16,7.84082e-16,5.82613,-8760.25,-3759.64)">
                <path d="M1755.49,789.654L1744.89,779.059" style="fill:none;stroke:rgb(35,31,32);stroke-width:0.72px;"/>
            </g>
            <g transform="matrix(7.0753,-8.58806e-16,8.58806e-16,7.0753,-10960.7,-4732.81)">
                <path d="M1755.49,789.654L1744.89,779.059" style="fill:none;stroke:rgb(35,31,32);stroke-width:0.59px;"/>
            </g>
            <g transform="matrix(1,0,0,1,-235.457,-0.425547)">
                <path d="M1589.03,725.688L2086.12,725.688" style="fill:none;stroke:rgb(35,31,32);stroke-width:4.17px;"/>
            </g>
            <g transform="matrix(1,0,0,0.574334,-271.046,202.768)">
                <path d="M1873.17,247.046L1873.17,267.61" style="fill:none;stroke:rgb(35,31,32);stroke-width:5.11px;stroke-linecap:square;"/>
            </g>
            <g transform="matrix(0.984808,-0.173648,0.099732,0.565608,-316.963,534.547)">
                <path d="M1873.17,247.046L1873.17,267.61" style="fill:none;stroke:rgb(35,31,32);stroke-width:5.11px;stroke-linecap:square;"/>
            </g>
            <g transform="matrix(0.939693,-0.34202,0.196434,0.539697,-304.569,869.258)">
                <path d="M1873.17,247.046L1873.17,267.61" style="fill:none;stroke:rgb(35,31,32);stroke-width:5.11px;stroke-linecap:square;"/>
            </g>
            <g transform="matrix(0.866025,-0.5,0.287167,0.497388,-234.242,1196.73)">
                <path d="M1873.17,247.046L1873.17,267.61" style="fill:none;stroke:rgb(35,31,32);stroke-width:5.11px;stroke-linecap:square;"/>
            </g>
            <g transform="matrix(0.766044,-0.642788,0.369175,0.439965,-108.117,1507.02)">
                <path d="M1873.17,247.046L1873.17,267.61" style="fill:none;stroke:rgb(35,31,32);stroke-width:5.11px;stroke-linecap:square;"/>
            </g>
            <g transform="matrix(0.642788,-0.766044,0.439965,0.369175,69.9717,1790.69)">
                <path d="M1873.17,247.046L1873.17,267.61" style="fill:none;stroke:rgb(35,31,32);stroke-width:5.11px;stroke-linecap:square;"/>
            </g>
            <g transform="matrix(0.5,-0.866025,0.497388,0.287167,294.614,2039.13)">
                <path d="M1873.17,247.046L1873.17,267.61" style="fill:none;stroke:rgb(35,31,32);stroke-width:5.11px;stroke-linecap:square;"/>
            </g>
            <g transform="matrix(0.34202,-0.939693,0.539697,0.196434,558.985,2244.78)">
                <path d="M1873.17,247.046L1873.17,267.61" style="fill:none;stroke:rgb(35,31,32);stroke-width:5.11px;stroke-linecap:square;"/>
            </g>
            <g transform="matrix(0.173648,-0.984808,0.565608,0.099732,855.05,2401.41)">
                <path d="M1873.17,247.046L1873.17,267.61" style="fill:none;stroke:rgb(35,31,32);stroke-width:5.11px;stroke-linecap:square;"/>
            </g>
            <g transform="matrix(1.83759e-15,-1,0.574334,1.05539e-15,1173.82,2504.24)">
                <path d="M1873.17,247.046L1873.17,267.61" style="fill:none;stroke:rgb(35,31,32);stroke-width:5.11px;stroke-linecap:square;"/>
            </g>
            <g transform="matrix(-0.173648,-0.984808,0.565608,-0.099732,1505.59,2550.15)">
                <path d="M1873.17,247.046L1873.17,267.61" style="fill:none;stroke:rgb(35,31,32);stroke-width:5.11px;stroke-linecap:square;"/>
            </g>
            <g transform="matrix(-0.34202,-0.939693,0.539697,-0.196434,1840.31,2537.76)">
                <path d="M1873.17,247.046L1873.17,267.61" style="fill:none;stroke:rgb(35,31,32);stroke-width:5.11px;stroke-linecap:square;"/>
            </g>
            <g transform="matrix(-0.5,-0.866025,0.497388,-0.287167,2167.78,2467.43)">
                <path d="M1873.17,247.046L1873.17,267.61" style="fill:none;stroke:rgb(35,31,32);stroke-width:5.11px;stroke-linecap:square;"/>
            </g>
            <g transform="matrix(-0.642788,-0.766044,0.439965,-0.369175,2478.07,2341.31)">
                <path d="M1873.17,247.046L1873.17,267.61" style="fill:none;stroke:rgb(35,31,32);stroke-width:5.11px;stroke-linecap:square;"/>
            </g>
            <g transform="matrix(-0.766044,-0.642788,0.369175,-0.439965,2761.74,2163.22)">
                <path d="M1873.17,247.046L1873.17,267.61" style="fill:none;stroke:rgb(35,31,32);stroke-width:5.11px;stroke-linecap:square;"/>
            </g>
            <g transform="matrix(-0.866025,-0.5,0.287167,-0.497388,3010.18,1938.58)">
                <path d="M1873.17,247.046L1873.17,267.61" style="fill:none;stroke:rgb(35,31,32);stroke-width:5.11px;stroke-linecap:square;"/>
            </g>
            <g transform="matrix(-0.939693,-0.34202,0.196434,-0.539697,3215.83,1674.21)">
                <path d="M1873.17,247.046L1873.17,267.61" style="fill:none;stroke:rgb(35,31,32);stroke-width:5.11px;stroke-linecap:square;"/>
            </g>
            <g transform="matrix(-0.984808,-0.173648,0.099732,-0.565608,3372.45,1378.14)">
                <path d="M1873.17,247.046L1873.17,267.61" style="fill:none;stroke:rgb(35,31,32);stroke-width:5.11px;stroke-linecap:square;"/>
            </g>
            <g transform="matrix(-1,-3.67518e-15,2.11078e-15,-0.574334,3475.28,1059.38)">
                <path d="M1873.17,247.046L1873.17,267.61" style="fill:none;stroke:rgb(35,31,32);stroke-width:5.11px;stroke-linecap:square;"/>
            </g>
            <g transform="matrix(-0.984808,0.173648,-0.099732,-0.565608,3521.2,727.597)">
                <path d="M1873.17,247.046L1873.17,267.61" style="fill:none;stroke:rgb(35,31,32);stroke-width:5.11px;stroke-linecap:square;"/>
            </g>
            <g transform="matrix(-0.939693,0.34202,-0.196434,-0.539697,3508.81,392.885)">
                <path d="M1873.17,247.046L1873.17,267.61" style="fill:none;stroke:rgb(35,31,32);stroke-width:5.11px;stroke-linecap:square;"/>
            </g>
            <g transform="matrix(-0.866025,0.5,-0.287167,-0.497388,3438.48,65.411)">
                <path d="M1873.17,247.046L1873.17,267.61" style="fill:none;stroke:rgb(35,31,32);stroke-width:5.11px;stroke-linecap:square;"/>
            </g>
            <g transform="matrix(-0.766044,0.642788,-0.369175,-0.439965,3312.36,-244.876)">
                <path d="M1873.17,247.046L1873.17,267.61" style="fill:none;stroke:rgb(35,31,32);stroke-width:5.11px;stroke-linecap:square;"/>
            </g>
            <g transform="matrix(-0.642788,0.766044,-0.439965,-0.369175,3134.27,-528.548)">
                <path d="M1873.17,247.046L1873.17,267.61" style="fill:none;stroke:rgb(35,31,32);stroke-width:5.11px;stroke-linecap:square;"/>
            </g>
            <g transform="matrix(-0.5,0.866025,-0.497388,-0.287167,2909.62,-776.985)">
                <path d="M1873.17,247.046L1873.17,267.61" style="fill:none;stroke:rgb(35,31,32);stroke-width:5.11px;stroke-linecap:square;"/>
            </g>
            <g transform="matrix(-0.34202,0.939693,-0.539697,-0.196434,2645.25,-982.64)">
                <path d="M1873.17,247.046L1873.17,267.61" style="fill:none;stroke:rgb(35,31,32);stroke-width:5.11px;stroke-linecap:square;"/>
            </g>
            <g transform="matrix(-0.173648,0.984808,-0.565608,-0.099732,2349.19,-1139.26)">
                <path d="M1873.17,247.046L1873.17,267.61" style="fill:none;stroke:rgb(35,31,32);stroke-width:5.11px;stroke-linecap:square;"/>
            </g>
            <g transform="matrix(-5.51277e-15,1,-0.574334,-3.16617e-15,2030.42,-1242.09)">
                <path d="M1873.17,247.046L1873.17,267.61" style="fill:none;stroke:rgb(35,31,32);stroke-width:5.11px;stroke-linecap:square;"/>
            </g>
            <g transform="matrix(0.173648,0.984808,-0.565608,0.099732,1698.64,-1288.01)">
                <path d="M1873.17,247.046L1873.17,267.61" style="fill:none;stroke:rgb(35,31,32);stroke-width:5.11px;stroke-linecap:square;"/>
            </g>
            <g transform="matrix(0.34202,0.939693,-0.539697,0.196434,1363.93,-1275.62)">
                <path d="M1873.17,247.046L1873.17,267.61" style="fill:none;stroke:rgb(35,31,32);stroke-width:5.11px;stroke-linecap:square;"/>
            </g>
            <g transform="matrix(0.5,0.866025,-0.497388,0.287167,1036.46,-1205.29)">
                <path d="M1873.17,247.046L1873.17,267.61" style="fill:none;stroke:rgb(35,31,32);stroke-width:5.11px;stroke-linecap:square;"/>
            </g>
            <g transform="matrix(0.642788,0.766044,-0.439965,0.369175,726.171,-1079.16)">
                <path d="M1873.17,247.046L1873.17,267.61" style="fill:none;stroke:rgb(35,31,32);stroke-width:5.11px;stroke-linecap:square;"/>
            </g>
            <g transform="matrix(0.766044,0.642788,-0.369175,0.439965,442.5,-901.076)">
                <path d="M1873.17,247.046L1873.17,267.61" style="fill:none;stroke:rgb(35,31,32);stroke-width:5.11px;stroke-linecap:square;"/>
            </g>
            <g transform="matrix(0.866025,0.5,-0.287167,0.497388,194.062,-676.433)">
                <path d="M1873.17,247.046L1873.17,267.61" style="fill:none;stroke:rgb(35,31,32);stroke-width:5.11px;stroke-linecap:square;"/>
            </g>
            <g transform="matrix(0.939693,0.34202,-0.196434,0.539697,-11.5922,-412.063)">
                <path d="M1873.17,247.046L1873.17,267.61" style="fill:none;stroke:rgb(35,31,32);stroke-width:5.11px;stroke-linecap:square;"/>
            </g>
            <g transform="matrix(0.984808,0.173648,-0.099732,0.565608,-168.215,-115.997)">
                <path d="M1873.17,247.046L1873.17,267.61" style="fill:none;stroke:rgb(35,31,32);stroke-width:5.11px;stroke-linecap:square;"/>
            </g>
            <g transform="matrix(1.14983,-0.100597,0.100597,1.14983,-595.412,129.739)">
                <circle cx="1858.8" cy="355.599" r="5.039" style="fill:none;stroke:rgb(35,31,32);stroke-width:3.61px;"/>
            </g>
            <g transform="matrix(1.1149,-0.298735,0.298735,1.1149,-649.082,518.952)">
                <circle cx="1858.8" cy="355.599" r="5.039" style="fill:none;stroke:rgb(35,31,32);stroke-width:3.61px;"/>
            </g>
            <g transform="matrix(1.04608,-0.487797,0.487797,1.04608,-634.35,911.573)">
                <circle cx="1858.8" cy="355.599" r="5.039" style="fill:none;stroke:rgb(35,31,32);stroke-width:3.61px;"/>
            </g>
            <g transform="matrix(0.945486,-0.662036,0.662036,0.945486,-551.665,1295.67)">
                <circle cx="1858.8" cy="355.599" r="5.039" style="fill:none;stroke:rgb(35,31,32);stroke-width:3.61px;"/>
            </g>
            <g transform="matrix(0.81616,-0.81616,0.81616,0.81616,-403.538,1659.57)">
                <circle cx="1858.8" cy="355.599" r="5.039" style="fill:none;stroke:rgb(35,31,32);stroke-width:3.61px;"/>
            </g>
            <g transform="matrix(0.662036,-0.945486,0.945486,0.662036,-194.47,1992.23)">
                <circle cx="1858.8" cy="355.599" r="5.039" style="fill:none;stroke:rgb(35,31,32);stroke-width:3.61px;"/>
            </g>
            <g transform="matrix(0.487797,-1.04608,1.04608,0.487797,69.1867,2283.52)">
                <circle cx="1858.8" cy="355.599" r="5.039" style="fill:none;stroke:rgb(35,31,32);stroke-width:3.61px;"/>
            </g>
            <g transform="matrix(0.298735,-1.1149,1.1149,0.298735,379.42,2524.61)">
                <circle cx="1858.8" cy="355.599" r="5.039" style="fill:none;stroke:rgb(35,31,32);stroke-width:3.61px;"/>
            </g>
            <g transform="matrix(0.100597,-1.14983,1.14983,0.100597,726.805,2708.16)">
                <circle cx="1858.8" cy="355.599" r="5.039" style="fill:none;stroke:rgb(35,31,32);stroke-width:3.61px;"/>
            </g>
            <g transform="matrix(-0.100597,-1.14983,1.14983,-0.100597,1100.79,2828.6)">
                <circle cx="1858.8" cy="355.599" r="5.039" style="fill:none;stroke:rgb(35,31,32);stroke-width:3.61px;"/>
            </g>
            <g transform="matrix(-0.298735,-1.1149,1.1149,-0.298735,1490,2882.27)">
                <circle cx="1858.8" cy="355.599" r="5.039" style="fill:none;stroke:rgb(35,31,32);stroke-width:3.61px;"/>
            </g>
            <g transform="matrix(-0.487797,-1.04608,1.04608,-0.487797,1882.62,2867.54)">
                <circle cx="1858.8" cy="355.599" r="5.039" style="fill:none;stroke:rgb(35,31,32);stroke-width:3.61px;"/>
            </g>
            <g transform="matrix(-0.662036,-0.945486,0.945486,-0.662036,2266.72,2784.86)">
                <circle cx="1858.8" cy="355.599" r="5.039" style="fill:none;stroke:rgb(35,31,32);stroke-width:3.61px;"/>
            </g>
            <g transform="matrix(-0.81616,-0.81616,0.81616,-0.81616,2630.62,2636.73)">
                <circle cx="1858.8" cy="355.599" r="5.039" style="fill:none;stroke:rgb(35,31,32);stroke-width:3.61px;"/>
            </g>
            <g transform="matrix(-0.945486,-0.662036,0.662036,-0.945486,2963.27,2427.66)">
                <circle cx="1858.8" cy="355.599" r="5.039" style="fill:none;stroke:rgb(35,31,32);stroke-width:3.61px;"/>
            </g>
            <g transform="matrix(-1.04608,-0.487797,0.487797,-1.04608,3254.57,2164)">
                <circle cx="1858.8" cy="355.599" r="5.039" style="fill:none;stroke:rgb(35,31,32);stroke-width:3.61px;"/>
            </g>
            <g transform="matrix(-1.1149,-0.298735,0.298735,-1.1149,3495.66,1853.77)">
                <circle cx="1858.8" cy="355.599" r="5.039" style="fill:none;stroke:rgb(35,31,32);stroke-width:3.61px;"/>
            </g>
            <g transform="matrix(-1.14983,-0.100597,0.100597,-1.14983,3679.21,1506.39)">
                <circle cx="1858.8" cy="355.599" r="5.039" style="fill:none;stroke:rgb(35,31,32);stroke-width:3.61px;"/>
            </g>
            <g transform="matrix(-1.14983,0.100597,-0.100597,-1.14983,3799.65,1132.4)">
                <circle cx="1858.8" cy="355.599" r="5.039" style="fill:none;stroke:rgb(35,31,32);stroke-width:3.61px;"/>
            </g>
            <g transform="matrix(-1.1149,0.298735,-0.298735,-1.1149,3853.32,743.191)">
                <circle cx="1858.8" cy="355.599" r="5.039" style="fill:none;stroke:rgb(35,31,32);stroke-width:3.61px;"/>
            </g>
            <g transform="matrix(-1.04608,0.487797,-0.487797,-1.04608,3838.59,350.571)">
                <circle cx="1858.8" cy="355.599" r="5.039" style="fill:none;stroke:rgb(35,31,32);stroke-width:3.61px;"/>
            </g>
            <g transform="matrix(-0.945486,0.662036,-0.662036,-0.945486,3755.9,-33.5265)">
                <circle cx="1858.8" cy="355.599" r="5.039" style="fill:none;stroke:rgb(35,31,32);stroke-width:3.61px;"/>
            </g>
            <g transform="matrix(-0.81616,0.81616,-0.81616,-0.81616,3607.78,-397.43)">
                <circle cx="1858.8" cy="355.599" r="5.039" style="fill:none;stroke:rgb(35,31,32);stroke-width:3.61px;"/>
            </g>
            <g transform="matrix(-0.662036,0.945486,-0.945486,-0.662036,3398.71,-730.084)">
                <circle cx="1858.8" cy="355.599" r="5.039" style="fill:none;stroke:rgb(35,31,32);stroke-width:3.61px;"/>
            </g>
            <g transform="matrix(-0.487797,1.04608,-1.04608,-0.487797,3135.05,-1021.38)">
                <circle cx="1858.8" cy="355.599" r="5.039" style="fill:none;stroke:rgb(35,31,32);stroke-width:3.61px;"/>
            </g>
            <g transform="matrix(-0.298735,1.1149,-1.1149,-0.298735,2824.82,-1262.47)">
                <circle cx="1858.8" cy="355.599" r="5.039" style="fill:none;stroke:rgb(35,31,32);stroke-width:3.61px;"/>
            </g>
            <g transform="matrix(-0.100597,1.14983,-1.14983,-0.100597,2477.43,-1446.02)">
                <circle cx="1858.8" cy="355.599" r="5.039" style="fill:none;stroke:rgb(35,31,32);stroke-width:3.61px;"/>
            </g>
            <g transform="matrix(0.100597,1.14983,-1.14983,0.100597,2103.45,-1566.46)">
                <circle cx="1858.8" cy="355.599" r="5.039" style="fill:none;stroke:rgb(35,31,32);stroke-width:3.61px;"/>
            </g>
            <g transform="matrix(0.298735,1.1149,-1.1149,0.298735,1714.24,-1620.13)">
                <circle cx="1858.8" cy="355.599" r="5.039" style="fill:none;stroke:rgb(35,31,32);stroke-width:3.61px;"/>
            </g>
            <g transform="matrix(0.487797,1.04608,-1.04608,0.487797,1321.62,-1605.4)">
                <circle cx="1858.8" cy="355.599" r="5.039" style="fill:none;stroke:rgb(35,31,32);stroke-width:3.61px;"/>
            </g>
            <g transform="matrix(0.662036,0.945486,-0.945486,0.662036,937.521,-1522.71)">
                <circle cx="1858.8" cy="355.599" r="5.039" style="fill:none;stroke:rgb(35,31,32);stroke-width:3.61px;"/>
            </g>
            <g transform="matrix(0.81616,0.81616,-0.81616,0.81616,573.617,-1374.59)">
                <circle cx="1858.8" cy="355.599" r="5.039" style="fill:none;stroke:rgb(35,31,32);stroke-width:3.61px;"/>
            </g>
            <g transform="matrix(0.945486,0.662036,-0.662036,0.945486,240.964,-1165.52)">
                <circle cx="1858.8" cy="355.599" r="5.039" style="fill:none;stroke:rgb(35,31,32);stroke-width:3.61px;"/>
            </g>
            <g transform="matrix(1.04608,0.487797,-0.487797,1.04608,-50.3318,-901.861)">
                <circle cx="1858.8" cy="355.599" r="5.039" style="fill:none;stroke:rgb(35,31,32);stroke-width:3.61px;"/>
            </g>
            <g transform="matrix(1.1149,0.298735,-0.298735,1.1149,-291.418,-591.627)">
                <circle cx="1858.8" cy="355.599" r="5.039" style="fill:none;stroke:rgb(35,31,32);stroke-width:3.61px;"/>
            </g>
            <g transform="matrix(1.14983,0.100597,-0.100597,1.14983,-474.971,-244.242)">
                <circle cx="1858.8" cy="355.599" r="5.039" style="fill:none;stroke:rgb(35,31,32);stroke-width:3.61px;"/>
            </g>
            <g transform="matrix(-3.07645,-1.77619,1.77619,-3.07645,6370.31,5294.73)">
                <path d="M1837.58,484.908L1837.58,474.192M1837.58,462.964L1837.58,424.379" style="fill:none;stroke:rgb(35,31,32);stroke-width:1.17px;"/>
            </g>
            <g transform="matrix(-3.07551,1.77565,-1.77565,-3.07551,8138.11,-1232.44)">
                <path d="M1837.58,484.885L1837.58,474.207M1837.58,462.77L1837.58,424.379" style="fill:none;stroke:rgb(35,31,32);stroke-width:1.17px;"/>
            </g>
            <g transform="matrix(1,0,0,1,-235.457,0)">
                <path d="M1837.58,450.954L1837.58,424.379" style="fill:none;stroke:rgb(35,31,32);stroke-width:4.17px;"/>
            </g>
            <g transform="matrix(0.987399,-0.264573,0.264573,0.987399,-344.114,492.433)">
                <path d="M1837.58,451.99L1837.58,424.379" style="fill:none;stroke:rgb(35,31,32);stroke-width:4.08px;"/>
            </g>
            <g transform="matrix(0.946158,-0.546264,0.546264,0.946158,-408.675,1030.59)">
                <path d="M1837.58,454.986L1837.58,424.379" style="fill:none;stroke:rgb(35,31,32);stroke-width:3.81px;"/>
            </g>
            <g transform="matrix(0.863389,-0.863389,0.863389,0.863389,-414.583,1654.55)">
                <path d="M1837.58,459.553L1837.58,424.379" style="fill:none;stroke:rgb(35,31,32);stroke-width:3.41px;"/>
            </g>
            <g transform="matrix(0.712571,-1.23421,1.23421,0.712571,-322.2,2411.09)">
                <path d="M1837.58,463.926L1837.58,424.379" style="fill:none;stroke:rgb(35,31,32);stroke-width:2.92px;"/>
            </g>
            <g transform="matrix(0.446988,-1.66818,1.66818,0.446988,-50.3928,3340.86)">
                <path d="M1837.58,466.666L1837.58,424.379" style="fill:none;stroke:rgb(35,31,32);stroke-width:2.41px;"/>
            </g>
            <g transform="matrix(3.93692e-15,-2.14244,2.14244,3.93692e-15,534.693,4435.02)">
                <path d="M1837.58,467.077L1837.58,424.379" style="fill:none;stroke:rgb(35,31,32);stroke-width:1.94px;"/>
            </g>
            <g transform="matrix(-0.688287,-2.56872,2.56872,-0.688287,1587.08,5561.26)">
                <path d="M1837.58,477.69L1837.58,424.379" style="fill:none;stroke:rgb(35,31,32);stroke-width:1.57px;"/>
            </g>
            <g transform="matrix(-1.61216,-2.79234,2.79234,-1.61216,3173.34,6432.46)">
                <path d="M1837.58,483.038L1837.58,424.379" style="fill:none;stroke:rgb(35,31,32);stroke-width:1.29px;"/>
            </g>
            <g transform="matrix(-2.66292,-2.66292,2.66292,-2.66292,5168.66,6718.13)">
                <path d="M1837.58,485.668L1837.58,424.379" style="fill:none;stroke:rgb(35,31,32);stroke-width:1.11px;"/>
            </g>
            <g transform="matrix(-1.00025,-0.268016,0.268016,-1.00025,3306.49,1489)">
                <path d="M1837.58,452.583L1837.58,424.379" style="fill:none;stroke:rgb(35,31,32);stroke-width:4.02px;"/>
            </g>
            <g transform="matrix(-1.00001,-3.6752e-15,3.6752e-15,-1.00001,3439.57,996.398)">
                <path d="M1837.58,450.954L1837.58,424.379" style="fill:none;stroke:rgb(35,31,32);stroke-width:4.17px;"/>
            </g>
            <g transform="matrix(-0.999763,0.267886,-0.267886,-0.999763,3572.58,504.035)">
                <path d="M1837.58,452.527L1837.58,424.379" style="fill:none;stroke:rgb(35,31,32);stroke-width:4.03px;"/>
            </g>
            <g transform="matrix(-2.66501,2.66501,-2.66501,-2.66501,7826.86,-3071.21)">
                <path d="M1837.58,485.652L1837.58,424.379" style="fill:none;stroke:rgb(35,31,32);stroke-width:1.11px;"/>
            </g>
            <g transform="matrix(-1.61391,2.79537,-2.79537,-1.61391,5960.35,-3834.41)">
                <path d="M1837.58,483.035L1837.58,424.379" style="fill:none;stroke:rgb(35,31,32);stroke-width:1.29px;"/>
            </g>
            <g transform="matrix(-0.689238,2.57227,-2.57227,-0.689238,4150.06,-3885.11)">
                <path d="M1837.58,477.706L1837.58,424.379" style="fill:none;stroke:rgb(35,31,32);stroke-width:1.56px;"/>
            </g>
            <g transform="matrix(-1.18297e-14,2.14588,-2.14588,-1.18297e-14,2671.12,-3444.95)">
                <path d="M1837.58,467.062L1837.58,424.379" style="fill:none;stroke:rgb(35,31,32);stroke-width:1.94px;"/>
            </g>
            <g transform="matrix(0.44774,1.67099,-1.67099,0.44774,1611.79,-2795.37)">
                <path d="M1837.58,466.608L1837.58,424.379" style="fill:none;stroke:rgb(35,31,32);stroke-width:2.41px;"/>
            </g>
            <g transform="matrix(0.713694,1.23615,-1.23615,0.713694,906.467,-2128.83)">
                <path d="M1837.58,463.884L1837.58,424.379" style="fill:none;stroke:rgb(35,31,32);stroke-width:2.92px;"/>
            </g>
            <g transform="matrix(0.864522,0.864522,-0.864522,0.864522,444.176,-1521.08)">
                <path d="M1837.58,459.524L1837.58,424.379" style="fill:none;stroke:rgb(35,31,32);stroke-width:3.41px;"/>
            </g>
            <g transform="matrix(0.947042,0.546775,-0.546775,0.947042,134.25,-978.322)">
                <path d="M1837.58,454.963L1837.58,424.379" style="fill:none;stroke:rgb(35,31,32);stroke-width:3.81px;"/>
            </g>
            <g transform="matrix(0.987878,0.264701,-0.264701,0.987878,-81.3102,-480.351)">
                <path d="M1837.58,451.977L1837.58,424.379" style="fill:none;stroke:rgb(35,31,32);stroke-width:4.07px;"/>
            </g>
            <g transform="matrix(0.296897,0,0,0.296897,1380.4,368.788)">
                <circle cx="746.773" cy="435.874" r="39.782" style="fill:none;stroke:rgb(35,31,32);stroke-width:14.03px;"/>
            </g>
            <g transform="matrix(1.18759,0,0,1.18759,664.016,-70.6859)">
                <path d="M786.401,439.397C784.718,458.545 769.444,473.819 750.296,475.502" style="fill:none;stroke:rgb(35,31,32);stroke-width:3.51px;"/>
            </g>
            <g transform="matrix(1.18759,0,0,1.18759,766.504,-70.6859)">
                <path d="M743.251,475.502C724.103,473.819 708.829,458.545 707.146,439.397" style="fill:none;stroke:rgb(35,31,32);stroke-width:3.51px;"/>
            </g>
            <g transform="matrix(1.18759,0,0,1.18759,766.504,31.8023)">
                <path d="M707.146,432.352C708.829,413.204 724.103,397.93 743.251,396.247" style="fill:none;stroke:rgb(35,31,32);stroke-width:3.51px;"/>
            </g>
            <g transform="matrix(1.18759,0,0,1.18759,664.016,31.8023)">
                <path d="M750.296,396.247C769.444,397.93 784.718,413.204 786.401,432.352" style="fill:none;stroke:rgb(35,31,32);stroke-width:3.51px;"/>
            </g>
            <g transform="matrix(1.18759,0,0,1.18759,715.26,-19.4418)">
                <circle cx="746.773" cy="435.874" r="39.782" style="fill:none;stroke:rgb(35,31,32);stroke-width:3.51px;"/>
            </g>
            <g transform="matrix(0.707107,-0.707107,0.707107,0.707107,-88.9825,1505.62)">
                <path d="M1955.39,483.434L1955.39,530.678L1908.14,530.678" style="fill:none;stroke:rgb(35,31,32);stroke-width:4.17px;"/>
            </g>
            <g transform="matrix(0.707107,-0.707107,0.707107,0.707107,-88.9825,1505.62)">
                <path d="M1860.9,483.434L1860.9,436.19L1908.14,436.19" style="fill:none;stroke:rgb(35,31,32);stroke-width:4.17px;"/>
            </g>
            <g id="hole" transform="matrix(1.99507,0,0,1.99507,-1041.44,-1148.68)">
                <circle cx="1325.04" cy="997.153" r="14.8" style="fill:none;stroke:rgb(35,31,32);stroke-width:2.09px;"/>
            </g>
        </g>
    </g>
</svg>
